<svg id="Planner_Checklist" data-name="Planner Checklist" xmlns="http://www.w3.org/2000/svg" viewBox="0 0 60 60">
  <defs>
    <style>
      .cls-1 {
        fill: #FFF;
      }
    </style>
  </defs>
  <path id="Path" class="cls-1" d="M9.18.755A2.678,2.678,0,0,1,12.908,4.6L7.4,9.942a2.678,2.678,0,0,1-3.7.029L.844,7.287a2.678,2.678,0,1,1,3.667-3.9l.995.935Z" transform="translate(10.969 24.645)"/>
  <path id="Path-2" data-name="Path" class="cls-1" d="M5.506,4.318,9.18.755A2.678,2.678,0,0,1,12.908,4.6L7.4,9.942a2.678,2.678,0,0,1-3.7.029L.844,7.287a2.678,2.678,0,1,1,3.667-3.9Z" transform="translate(10.969 38.336)"/>
  <path id="Path-3" data-name="Path" class="cls-1" d="M57.272,16.066H2.727A2.706,2.706,0,0,1,0,13.389V5.355A5.411,5.411,0,0,1,5.454,0H16.517a2.587,2.587,0,0,0-2.706,2.677,2.589,2.589,0,0,0,2.725,2.677H5.454v5.355H54.542l0-5.355H43.661a2.59,2.59,0,0,0,2.718-2.677A2.589,2.589,0,0,0,43.649,0h10.9A5.411,5.411,0,0,1,60,5.355v8.034A2.706,2.706,0,0,1,57.272,16.066ZM43.649,5.355H16.539V0h27.11V5.355Z" transform="translate(0 5.355)"/>
  <path id="Path-4" data-name="Path" class="cls-1" d="M5.455,5.492V35.7a2.737,2.737,0,0,0,2.727,2.746H51.818A2.737,2.737,0,0,0,54.545,35.7V13.729a2.727,2.727,0,1,1,5.455,0V35.7a8.21,8.21,0,0,1-8.182,8.238H8.182A8.21,8.21,0,0,1,0,35.7V2.746A2.737,2.737,0,0,1,2.727,0H57.273a2.746,2.746,0,0,1,0,5.492Z" transform="translate(0 16.066)"/>
  <path id="Path-5" data-name="Path" class="cls-1" d="M0,2.678a2.678,2.678,0,1,1,5.355,0V10.71A2.678,2.678,0,0,1,0,10.71Z" transform="translate(43.716)"/>
  <path id="Path-6" data-name="Path" class="cls-1" d="M0,2.678a2.678,2.678,0,1,1,5.355,0V10.71A2.678,2.678,0,0,1,0,10.71Z" transform="translate(13.661)"/>
  <path id="Path-7" data-name="Path" class="cls-1" d="M2.678,5.355A2.678,2.678,0,0,1,2.678,0H16.066a2.678,2.678,0,0,1,0,5.355Z" transform="translate(30.255 27.322)"/>
  <path id="Path-8" data-name="Path" class="cls-1" d="M2.678,5.355A2.678,2.678,0,0,1,2.678,0H16.066a2.678,2.678,0,0,1,0,5.355Z" transform="translate(30.255 40.952)"/>
</svg>
