<svg xmlns="http://www.w3.org/2000/svg" width="53.426" height="32.052" viewBox="0 0 53.426 32.052"><defs><style>.a{fill:#fff;}</style></defs><path class="a" d="M43.813,212.715l7.21-4.137c1.338-.8,2.4-.141,2.4,1.2v20.969c0,1.47-1.074,2-2.4,1.2l-7.21-4.137c-1.338-.8-2.4-1.6-2.4-2.94v-9.349c-.009-1.329,1.065-2,2.4-2.8M0,209.907v21.911a5.066,5.066,0,0,0,5.07,5.07H32.325a5.066,5.066,0,0,0,5.07-5.07V209.907a5.066,5.066,0,0,0-5.07-5.07H5.07A5.072,5.072,0,0,0,0,209.907Zm6.776,4.3a3.128,3.128,0,0,1,2.469-2.469A3.061,3.061,0,0,1,13,215.391a3.377,3.377,0,0,1-2.469,2.563A3.178,3.178,0,0,1,6.776,214.2Z" transform="translate(0 -204.837)"/></svg>