<svg xmlns="http://www.w3.org/2000/svg" width="48.636" height="53.5" viewBox="0 0 48.636 53.5"><defs><style>.a{fill:#fff;}</style></defs><path class="a" d="M4.864,12.159a2.432,2.432,0,1,1-4.864,0V7.3A7.3,7.3,0,0,1,7.3,0H41.341a7.3,7.3,0,0,1,7.3,7.3V46.2a7.3,7.3,0,0,1-7.3,7.3H7.3A7.3,7.3,0,0,1,0,46.2V21.886a2.432,2.432,0,0,1,4.864,0V46.2A2.432,2.432,0,0,0,7.3,48.636H41.341A2.432,2.432,0,0,0,43.773,46.2V7.3a2.432,2.432,0,0,0-2.432-2.432H7.3A2.432,2.432,0,0,0,4.864,7.3Z" transform="translate(0 0)"/><path class="a" d="M8.008.712a2.432,2.432,0,0,1,3.439,3.439L6.583,9.015a2.432,2.432,0,0,1-3.439,0L.712,6.583A2.432,2.432,0,0,1,4.151,3.144l.712.712Z" transform="translate(9.727 9.727)"/><path class="a" d="M2.429,4.864A2.432,2.432,0,1,1,2.435,0l9.682.012a2.432,2.432,0,0,1-.006,4.864Z" transform="translate(24.318 12.159)"/><path class="a" d="M2.429,4.864A2.432,2.432,0,1,1,2.435,0l9.682.012a2.432,2.432,0,0,1-.006,4.864Z" transform="translate(24.318 24.318)"/><path class="a" d="M8.008.712a2.432,2.432,0,0,1,3.439,3.439L6.583,9.015a2.432,2.432,0,0,1-3.439,0L.712,6.583A2.432,2.432,0,0,1,4.151,3.144l.712.712Z" transform="translate(9.727 21.886)"/><path class="a" d="M2.429,4.864A2.432,2.432,0,1,1,2.435,0l9.682.012a2.432,2.432,0,0,1-.006,4.864Z" transform="translate(24.318 36.477)"/><path class="a" d="M8.008.712a2.432,2.432,0,0,1,3.439,3.439L6.583,9.015a2.432,2.432,0,0,1-3.439,0L.712,6.583A2.432,2.432,0,0,1,4.151,3.144l.712.712Z" transform="translate(9.727 34.045)"/></svg>