<?xml version="1.0" encoding="utf-8"?>
<!-- Generator: Adobe Illustrator 22.0.0, SVG Export Plug-In . SVG Version: 6.00 Build 0)  -->
<svg version="1.1" id="Contact" xmlns="http://www.w3.org/2000/svg" xmlns:xlink="http://www.w3.org/1999/xlink" x="0px" y="0px"
	 viewBox="0 0 53.5 53.5" style="enable-background:new 0 0 53.5 53.5;" xml:space="preserve">
<style type="text/css">
	.st0{fill:#ffffff;}
</style>
<path id="Path" class="st0" d="M46.2,53.5h-7.3c-1.3,0-2.5-1-2.5-2.4c0-1.3,1-2.5,2.4-2.5c0,0,0.1,0,0.1,0h7.3
	c1.3,0,2.4-1.1,2.4-2.4v-7.3c0-1.3,1.1-2.4,2.5-2.4c1.3,0,2.4,1.1,2.4,2.4v7.3C53.5,50.3,50.3,53.5,46.2,53.5z M14.6,53.5H7.3
	c-4,0-7.3-3.3-7.3-7.3v-7.3c0-1.3,1.1-2.4,2.5-2.4c1.3,0,2.4,1.1,2.4,2.4v7.3c0,1.3,1.1,2.4,2.4,2.4h7.3c1.3,0,2.5,1,2.5,2.4
	c0,1.3-1,2.5-2.4,2.5C14.7,53.5,14.6,53.5,14.6,53.5L14.6,53.5z M51.1,17c-1.3,0-2.4-1.1-2.4-2.4V7.3c0-1.3-1.1-2.4-2.4-2.4h-7.3
	c-1.3,0-2.5-1-2.5-2.4c0-1.3,1-2.5,2.4-2.5c0,0,0.1,0,0.1,0h7.3c4,0,7.3,3.3,7.3,7.3v7.3C53.5,15.9,52.4,17,51.1,17z M2.4,17
	C1.1,17,0,15.9,0,14.6V7.3C0,3.3,3.3,0,7.3,0h7.3c1.3,0,2.5,1,2.5,2.4c0,1.3-1,2.5-2.4,2.5c0,0-0.1,0-0.1,0H7.3C6,4.9,4.9,6,4.9,7.3
	c0,0,0,0,0,0v7.3C4.9,15.9,3.8,17,2.4,17L2.4,17z"/>
<path id="Path-2" class="st0" d="M26.8,28.2c-5.4,0-9.7-4.4-9.7-9.7s4.4-9.7,9.7-9.7c5.4,0,9.7,4.4,9.7,9.7
	C36.5,23.8,32.1,28.2,26.8,28.2z M26.8,13.6c-2.7,0-4.9,2.2-4.9,4.9s2.2,4.9,4.9,4.9c2.7,0,4.9-2.2,4.9-4.9
	C31.6,15.8,29.4,13.6,26.8,13.6L26.8,13.6z"/>
<path id="Path-3" class="st0" d="M38.9,43.8H14.6c-1.3,0-2.4-1.1-2.4-2.4v-2.4C12,30.9,18.4,24.2,26.5,24
	c8.1-0.2,14.7,6.2,14.9,14.3c0,0.2,0,0.4,0,0.6v2.4C41.4,42.7,40.3,43.8,38.9,43.8z M26.8,29.2c-5.4,0-9.7,4.4-9.7,9.7h19.5
	C36.5,33.6,32.1,29.2,26.8,29.2z"/>
</svg>
